<svg width="18" height="16" viewBox="0 0 18 16" fill="none" xmlns="http://www.w3.org/2000/svg">
<path d="M9.78827 0.409146C9.50793 -0.120757 8.6361 -0.120757 8.35575 0.409146L1.0635 14.1834C0.997853 14.3069 0.96531 14.4452 0.969038 14.585C0.972766 14.7248 1.01264 14.8612 1.08477 14.981C1.1569 15.1008 1.25883 15.1998 1.38063 15.2685C1.50242 15.3372 1.63993 15.3731 1.77976 15.3728H16.3643C16.504 15.3731 16.6414 15.3372 16.7631 15.2686C16.8848 15.1999 16.9867 15.1009 17.0587 14.9812C17.1308 14.8615 17.1706 14.7252 17.1743 14.5855C17.178 14.4458 17.1454 14.3076 17.0797 14.1842L9.78827 0.409146ZM9.88226 12.9421H8.26176V11.3216H9.88226V12.9421ZM8.26176 9.7011V5.64984H9.88226L9.88307 9.7011H8.26176Z" fill="#CD3232"/>
</svg>
